<?xml version="1.0" encoding="utf-8"?>
<!-- Generator: Adobe Illustrator 18.1.1, SVG Export Plug-In . SVG Version: 6.00 Build 0)  -->
<!DOCTYPE svg PUBLIC "-//W3C//DTD SVG 1.1//EN" "http://www.w3.org/Graphics/SVG/1.1/DTD/svg11.dtd">
<svg version="1.1" id="Layer_1" xmlns="http://www.w3.org/2000/svg" xmlns:xlink="http://www.w3.org/1999/xlink" x="0px" y="0px"
	 viewBox="0 0 612 792" enable-background="new 0 0 612 792" xml:space="preserve">
<g>
	<path fill="#787878" d="M199,394c0-35.1,28.4-63.5,63.5-63.5S326,358.9,326,394s-28.4,63.5-63.5,63.5S199,429.1,199,394z
		 M262.5,480.8c47.9,0,86.8-38.8,86.8-86.8s-38.8-86.8-86.8-86.8s-86.8,38.8-86.8,86.8S214.6,480.8,262.5,480.8z"/>
	<path fill="#787878" d="M262.5,451.6c15.4,0,29.9-6,40.8-16.9c10.9-10.9,16.9-25.4,16.9-40.8c0-15.4-6-29.9-16.9-40.8
		c-10.9-10.9-25.4-16.9-40.8-16.9c-31.8,0-57.6,25.9-57.6,57.6c0,15.4,6,29.9,16.9,40.8C232.6,445.6,247.1,451.6,262.5,451.6z
		 M206.6,394c0-14.9,5.8-29,16.4-39.5c10.6-10.6,24.6-16.4,39.5-16.4c14.9,0,29,5.8,39.5,16.4c10.6,10.6,16.4,24.6,16.4,39.5
		c0,30.8-25.1,55.9-55.9,55.9c-14.9,0-29-5.8-39.5-16.4C212.4,423,206.6,408.9,206.6,394z"/>
	<path fill="#787878" d="M262.5,489.6c25.5,0,49.5-9.9,67.6-28c18.1-18.1,28-42.1,28-67.6s-9.9-49.5-28-67.6
		c-18.1-18.1-42.1-28-67.6-28c-52.7,0-95.6,42.9-95.6,95.6c0,25.5,9.9,49.5,28,67.6C213,479.6,237,489.6,262.5,489.6z M168.1,394
		c0-25.2,9.8-48.9,27.7-66.8c17.8-17.8,41.5-27.7,66.8-27.7c25.2,0,48.9,9.8,66.8,27.7c17.8,17.8,27.7,41.5,27.7,66.8
		c0,52.1-42.4,94.4-94.4,94.4c-25.2,0-48.9-9.8-66.8-27.7C177.9,442.9,168.1,419.2,168.1,394z"/>
</g>
<g>
	<g>
		<circle fill="#414141" cx="262.3" cy="333.5" r="1.2"/>
		<circle fill="#414141" cx="256" cy="333.8" r="1.2"/>
		<circle fill="#414141" cx="249.7" cy="334.8" r="1.2"/>
		<circle fill="#414141" cx="243.6" cy="336.5" r="1.2"/>
		<circle fill="#414141" cx="237.7" cy="338.8" r="1.2"/>
		<circle fill="#414141" cx="232.1" cy="341.7" r="1.2"/>
		<circle fill="#414141" cx="226.8" cy="345.1" r="1.2"/>
		<circle fill="#414141" cx="221.9" cy="349.1" r="1.2"/>
		<circle fill="#414141" cx="217.4" cy="353.6" r="1.2"/>
		<circle fill="#414141" cx="213.4" cy="358.6" r="1.2"/>
		<circle fill="#414141" cx="210" cy="363.9" r="1.2"/>
	</g>
	<g>
		<circle fill="#414141" cx="207.1" cy="369.7" r="1.2"/>
		<circle fill="#414141" cx="204.9" cy="375.6" r="1.2"/>
		<circle fill="#414141" cx="203.2" cy="381.7" r="1.2"/>
		<circle fill="#414141" cx="202.3" cy="388" r="1.2"/>
		<circle fill="#414141" cx="202" cy="394.3" r="1.2"/>
		<circle fill="#414141" cx="202.3" cy="400.6" r="1.2"/>
		<circle fill="#414141" cx="203.4" cy="406.9" r="1.2"/>
		<circle fill="#414141" cx="205" cy="413" r="1.2"/>
		<circle fill="#414141" cx="207.3" cy="418.9" r="1.2"/>
		<circle fill="#414141" cx="210.2" cy="424.5" r="1.2"/>
	</g>
	<g>
		<circle fill="#414141" cx="213.6" cy="429.7" r="1.2"/>
		<circle fill="#414141" cx="217.6" cy="434.6" r="1.2"/>
		<circle fill="#414141" cx="222.1" cy="439.1" r="1.2"/>
		<circle fill="#414141" cx="227.1" cy="443.1" r="1.2"/>
		<circle fill="#414141" cx="232.4" cy="446.5" r="1.2"/>
		<circle fill="#414141" cx="238" cy="449.4" r="1.2"/>
		<circle fill="#414141" cx="244" cy="451.6" r="1.2"/>
		<circle fill="#414141" cx="250.1" cy="453.2" r="1.2"/>
		<circle fill="#414141" cx="256.3" cy="454.2" r="1.2"/>
		<circle fill="#414141" cx="262.7" cy="454.5" r="1.2"/>
	</g>
	<g>
		<circle fill="#414141" cx="269.1" cy="454.2" r="1.2"/>
		<circle fill="#414141" cx="275.4" cy="453.1" r="1.2"/>
		<circle fill="#414141" cx="281.5" cy="451.5" r="1.2"/>
		<circle fill="#414141" cx="287.4" cy="449.2" r="1.2"/>
		<circle fill="#414141" cx="293" cy="446.3" r="1.2"/>
		<circle fill="#414141" cx="298.3" cy="442.8" r="1.2"/>
		<circle fill="#414141" cx="303.2" cy="438.8" r="1.2"/>
		<circle fill="#414141" cx="307.7" cy="434.3" r="1.2"/>
		<circle fill="#414141" cx="311.6" cy="429.3" r="1.2"/>
		<circle fill="#414141" cx="315.1" cy="424" r="1.2"/>
	</g>
	<g>
		<circle fill="#414141" cx="317.9" cy="418.2" r="1.2"/>
		<circle fill="#414141" cx="320.2" cy="412.3" r="1.2"/>
		<circle fill="#414141" cx="321.8" cy="406.2" r="1.2"/>
		<circle fill="#414141" cx="322.7" cy="399.9" r="1.2"/>
		<circle fill="#414141" cx="323" cy="393.6" r="1.2"/>
		<circle fill="#414141" cx="322.6" cy="387.3" r="1.2"/>
		<circle fill="#414141" cx="321.6" cy="381" r="1.2"/>
		<circle fill="#414141" cx="319.9" cy="374.9" r="1.2"/>
		<circle fill="#414141" cx="317.6" cy="369" r="1.2"/>
	</g>
	<circle fill="#414141" cx="314.6" cy="363.2" r="1.2"/>
	<circle fill="#414141" cx="311.1" cy="357.9" r="1.2"/>
	<circle fill="#414141" cx="307" cy="353" r="1.2"/>
	<circle fill="#414141" cx="302.5" cy="348.6" r="1.2"/>
	<circle fill="#414141" cx="297.5" cy="344.7" r="1.2"/>
	<circle fill="#414141" cx="292.2" cy="341.3" r="1.2"/>
	<circle fill="#414141" cx="286.5" cy="338.5" r="1.2"/>
	<circle fill="#414141" cx="280.6" cy="336.3" r="1.2"/>
	<circle fill="#414141" cx="274.5" cy="334.7" r="1.2"/>
	<circle fill="#414141" cx="268.2" cy="333.8" r="1.2"/>
</g>
<g>
	<g>
		<g>
			<path fill="#414141" d="M264.9,304.7c0,0-1.3,0.2-1.9-1.1c0,0-0.3-1.3-1.7-1.9c0,0-1.5-0.7-3,0.2c0,0,1.2-0.3,1.9,1.1
				c0,0,0.3,0.9,1.7,1.8C261.9,304.8,263.3,305.6,264.9,304.7z"/>
			<path fill="#414141" d="M260.2,304.6c0,0-1.3,0.3-2-1c0,0-0.4-1.3-1.8-1.8c0,0-1.5-0.7-3,0.4c0,0,1.1-0.4,2,1
				c0,0,0.3,0.9,1.7,1.7C257.2,305,258.7,305.7,260.2,304.6z"/>
			<path fill="#414141" d="M255.5,304.9c0,0-1.2,0.4-2-0.9c0,0-0.4-1.3-1.8-1.7c0,0-1.5-0.6-3,0.6c0,0,1.1-0.5,2,0.9
				c0,0,0.4,0.9,1.8,1.6C252.5,305.4,254.1,306,255.5,304.9z"/>
			<path fill="#414141" d="M250.9,305.4c0,0-1.2,0.4-2.1-0.8c0,0-0.5-1.3-1.9-1.6c0,0-1.6-0.5-2.9,0.7c0,0,1.1-0.5,2.1,0.8
				c0,0,0.4,0.9,1.9,1.5C247.9,306,249.5,306.6,250.9,305.4z"/>
			<path fill="#414141" d="M246.2,306.1c0,0-1.2,0.5-2.1-0.6c0,0-0.6-1.2-2-1.5c0,0-1.6-0.4-2.9,0.9c0,0,1.1-0.6,2.1,0.6
				c0,0,0.5,0.8,2,1.4C243.3,306.9,244.9,307.4,246.2,306.1z"/>
			<path fill="#414141" d="M241.7,307.1c0,0-1.2,0.6-2.2-0.5c0,0-0.6-1.2-2.1-1.4c0,0-1.6-0.3-2.9,1c0,0,1-0.6,2.2,0.5
				c0,0,0.5,0.8,2.1,1.3C238.8,308,240.4,308.4,241.7,307.1z"/>
			<path fill="#414141" d="M237.2,308.3c0,0-1.1,0.6-2.2-0.4c0,0-0.7-1.2-2.2-1.3c0,0-1.6-0.2-2.8,1.2c0,0,1-0.7,2.2,0.4
				c0,0,0.6,0.8,2.1,1.2C234.3,309.4,236,309.7,237.2,308.3z"/>
			<path fill="#414141" d="M232.7,309.7c0,0-1.1,0.7-2.2-0.3c0,0-0.7-1.1-2.2-1.2c0,0-1.6-0.2-2.7,1.3c0,0,1-0.7,2.2,0.3
				c0,0,0.6,0.8,2.2,1.1C229.9,311,231.6,311.2,232.7,309.7z"/>
			<path fill="#414141" d="M228.3,311.4c0,0-1.1,0.7-2.2-0.2c0,0-0.8-1.1-2.3-1.1c0,0-1.6-0.1-2.7,1.4c0,0,0.9-0.8,2.2,0.2
				c0,0,0.6,0.7,2.2,1C225.6,312.8,227.3,312.9,228.3,311.4z"/>
			<path fill="#414141" d="M224.1,313.3c0,0-1,0.8-2.2-0.1c0,0-0.9-1-2.3-0.9c0,0-1.6,0-2.6,1.6c0,0,0.9-0.8,2.2,0.1
				c0,0,0.7,0.7,2.3,0.9C221.4,314.8,223.1,314.9,224.1,313.3z"/>
			<path fill="#414141" d="M219.9,315.4c0,0-1,0.8-2.2,0c0,0-0.9-1-2.4-0.8c0,0-1.6,0.1-2.5,1.7c0,0,0.8-0.9,2.2,0
				c0,0,0.7,0.7,2.3,0.7C217.4,317.1,219,317.1,219.9,315.4z"/>
			<path fill="#414141" d="M215.8,317.8c0,0-0.9,0.9-2.2,0.2c0,0-1-0.9-2.4-0.7c0,0-1.6,0.2-2.4,1.8c0,0,0.8-0.9,2.2-0.2
				c0,0,0.7,0.6,2.4,0.6C213.4,319.5,215.1,319.4,215.8,317.8z"/>
			<path fill="#414141" d="M211.9,320.3c0,0-0.9,0.9-2.2,0.3c0,0-1-0.9-2.5-0.6c0,0-1.6,0.3-2.3,2c0,0,0.7-1,2.2-0.3
				c0,0,0.8,0.6,2.4,0.5C209.6,322.2,211.2,322,211.9,320.3z"/>
			<path fill="#414141" d="M208.1,323.1c0,0-0.8,1-2.2,0.4c0,0-1.1-0.8-2.5-0.4c0,0-1.6,0.4-2.2,2.1c0,0,0.7-1,2.2-0.4
				c0,0,0.8,0.5,2.4,0.4C205.9,325.1,207.5,324.8,208.1,323.1z"/>
			<path fill="#414141" d="M204.5,326c0,0-0.8,1-2.2,0.5c0,0-1.1-0.8-2.5-0.3c0,0-1.6,0.4-2.1,2.2c0,0,0.6-1,2.2-0.5
				c0,0,0.8,0.5,2.4,0.2C202.3,328.1,204,327.8,204.5,326z"/>
		</g>
		<g>
			<path fill="#414141" d="M200.9,329.2c0,0-0.7,1.1-2.1,0.6c0,0-1.1-0.7-2.5-0.2c0,0-1.5,0.5-2,2.3c0,0,0.6-1.1,2.1-0.6
				c0,0,0.9,0.4,2.4,0.1C198.9,331.5,200.5,331,200.9,329.2z"/>
			<path fill="#414141" d="M197.6,332.5c0,0-0.7,1.1-2.1,0.7c0,0-1.2-0.7-2.5,0c0,0-1.5,0.6-1.8,2.4c0,0,0.5-1.1,2.1-0.7
				c0,0,0.9,0.4,2.4,0C195.7,334.9,197.3,334.3,197.6,332.5z"/>
			<path fill="#414141" d="M194.5,336c0,0-0.6,1.1-2.1,0.8c0,0-1.2-0.6-2.5,0.1c0,0-1.5,0.7-1.7,2.5c0,0,0.5-1.1,2.1-0.8
				c0,0,0.9,0.4,2.4-0.2C192.7,338.4,194.3,337.8,194.5,336z"/>
			<path fill="#414141" d="M191.5,339.6c0,0-0.5,1.2-2,0.9c0,0-1.2-0.5-2.5,0.2c0,0-1.4,0.8-1.6,2.6c0,0,0.4-1.1,2-0.9
				c0,0,0.9,0.3,2.4-0.3C189.9,342.2,191.4,341.5,191.5,339.6z"/>
			<path fill="#414141" d="M188.8,343.4c0,0-0.5,1.2-2,1.1c0,0-1.3-0.5-2.5,0.4c0,0-1.4,0.8-1.4,2.7c0,0,0.3-1.2,2-1.1
				c0,0,0.9,0.3,2.4-0.4C187.3,346,188.8,345.3,188.8,343.4z"/>
			<path fill="#414141" d="M186.3,347.4c0,0-0.4,1.2-1.9,1.2c0,0-1.3-0.4-2.5,0.5c0,0-1.4,0.9-1.3,2.7c0,0,0.3-1.2,1.9-1.2
				c0,0,0.9,0.2,2.4-0.5C184.9,350,186.3,349.2,186.3,347.4z"/>
			<path fill="#414141" d="M183.9,351.4c0,0-0.4,1.2-1.8,1.3c0,0-1.3-0.3-2.4,0.6c0,0-1.3,1-1.1,2.8c0,0,0.2-1.2,1.8-1.3
				c0,0,1,0.2,2.4-0.7C182.7,354.2,184.1,353.2,183.9,351.4z"/>
			<path fill="#414141" d="M181.8,355.6c0,0-0.3,1.3-1.8,1.3c0,0-1.3-0.3-2.4,0.7c0,0-1.3,1-1,2.9c0,0,0.2-1.2,1.8-1.3
				c0,0,1,0.1,2.3-0.8C180.7,358.4,182.1,357.4,181.8,355.6z"/>
			<path fill="#414141" d="M179.9,359.9c0,0-0.2,1.3-1.7,1.4c0,0-1.3-0.2-2.4,0.9c0,0-1.2,1.1-0.9,2.9c0,0,0.1-1.2,1.7-1.4
				c0,0,1,0.1,2.3-0.9C179,362.7,180.3,361.7,179.9,359.9z"/>
			<path fill="#414141" d="M178.2,364.2c0,0-0.2,1.3-1.6,1.5c0,0-1.3-0.1-2.3,1c0,0-1.1,1.2-0.7,2.9c0,0,0-1.2,1.6-1.5
				c0,0,1,0,2.2-1C177.4,367.1,178.7,366,178.2,364.2z"/>
			<path fill="#414141" d="M176.8,368.7c0,0-0.1,1.3-1.5,1.6c0,0-1.3-0.1-2.3,1.1c0,0-1.1,1.2-0.5,3c0,0,0-1.2,1.5-1.6
				c0,0,1,0,2.2-1.1C176.1,371.6,177.3,370.4,176.8,368.7z"/>
			<path fill="#414141" d="M175.6,373.2c0,0,0,1.3-1.5,1.7c0,0-1.3,0-2.2,1.2c0,0-1,1.3-0.4,3c0,0-0.1-1.2,1.5-1.7
				c0,0,1-0.1,2.1-1.2C175.1,376.2,176.2,374.9,175.6,373.2z"/>
			<path fill="#414141" d="M174.6,377.8c0,0,0,1.3-1.4,1.8c0,0-1.3,0.1-2.1,1.3c0,0-0.9,1.3-0.2,3c0,0-0.2-1.2,1.4-1.8
				c0,0,1-0.1,2-1.4C174.3,380.8,175.3,379.5,174.6,377.8z"/>
			<path fill="#414141" d="M173.9,382.4c0,0,0.1,1.3-1.3,1.8c0,0-1.3,0.2-2.1,1.4c0,0-0.9,1.4-0.1,3c0,0-0.2-1.2,1.3-1.8
				c0,0,0.9-0.2,2-1.5C173.7,385.4,174.7,384,173.9,382.4z"/>
		</g>
	</g>
	<g>
		<g>
			<path fill="#414141" d="M173.4,387.1c0,0,0.2,1.3-1.2,1.9c0,0-1.3,0.2-2,1.6c0,0-0.8,1.4,0.1,3c0,0-0.3-1.2,1.2-1.9
				c0,0,0.9-0.2,1.9-1.6C173.4,390.1,174.3,388.7,173.4,387.1z"/>
			<path fill="#414141" d="M173.1,391.8c0,0,0.2,1.3-1.1,1.9c0,0-1.3,0.3-1.9,1.7c0,0-0.7,1.5,0.2,3c0,0-0.3-1.2,1.1-1.9
				c0,0,0.9-0.3,1.8-1.7C173.3,394.8,174.1,393.3,173.1,391.8z"/>
			<path fill="#414141" d="M173.2,396.5c0,0,0.3,1.2-1,2c0,0-1.3,0.4-1.8,1.8c0,0-0.6,1.5,0.4,3c0,0-0.4-1.1,1-2
				c0,0,0.9-0.3,1.7-1.7C173.5,399.5,174.2,398,173.2,396.5z"/>
			<path fill="#414141" d="M173.4,401.1c0,0,0.4,1.2-0.9,2c0,0-1.3,0.4-1.7,1.8c0,0-0.6,1.5,0.6,3c0,0-0.5-1.1,0.9-2
				c0,0,0.9-0.4,1.6-1.8C173.9,404.1,174.5,402.6,173.4,401.1z"/>
			<path fill="#414141" d="M173.9,405.8c0,0,0.4,1.2-0.7,2.1c0,0-1.3,0.5-1.6,1.9c0,0-0.5,1.6,0.7,2.9c0,0-0.5-1.1,0.7-2.1
				c0,0,0.9-0.4,1.5-1.9C174.5,408.7,175.1,407.2,173.9,405.8z"/>
			<path fill="#414141" d="M174.6,410.4c0,0,0.5,1.2-0.6,2.1c0,0-1.2,0.6-1.5,2c0,0-0.4,1.6,0.9,2.9c0,0-0.6-1.1,0.6-2.1
				c0,0,0.8-0.5,1.4-2C175.4,413.3,175.9,411.7,174.6,410.4z"/>
			<path fill="#414141" d="M175.6,415c0,0,0.6,1.2-0.5,2.2c0,0-1.2,0.6-1.4,2.1c0,0-0.3,1.6,1,2.9c0,0-0.6-1,0.5-2.2
				c0,0,0.8-0.5,1.3-2.1C176.5,417.8,177,416.2,175.6,415z"/>
			<path fill="#414141" d="M176.8,419.5c0,0,0.6,1.1-0.4,2.2c0,0-1.2,0.7-1.3,2.2c0,0-0.2,1.6,1.2,2.8c0,0-0.7-1,0.4-2.2
				c0,0,0.8-0.6,1.2-2.1C177.9,422.3,178.2,420.7,176.8,419.5z"/>
			<path fill="#414141" d="M178.3,423.9c0,0,0.7,1.1-0.3,2.2c0,0-1.1,0.7-1.2,2.2c0,0-0.2,1.6,1.3,2.7c0,0-0.7-1,0.3-2.2
				c0,0,0.8-0.6,1.1-2.2C179.5,426.7,179.8,425,178.3,423.9z"/>
			<path fill="#414141" d="M180,428.3c0,0,0.7,1.1-0.2,2.2c0,0-1.1,0.8-1.1,2.3c0,0-0.1,1.6,1.5,2.7c0,0-0.8-0.9,0.2-2.2
				c0,0,0.7-0.6,1-2.2C181.3,431,181.5,429.3,180,428.3z"/>
			<path fill="#414141" d="M181.9,432.6c0,0,0.8,1-0.1,2.2c0,0-1,0.9-0.9,2.3c0,0,0,1.6,1.6,2.6c0,0-0.8-0.9,0.1-2.2
				c0,0,0.7-0.7,0.8-2.3C183.4,435.2,183.4,433.5,181.9,432.6z"/>
			<path fill="#414141" d="M184,436.7c0,0,0.8,1,0,2.2c0,0-1,0.9-0.8,2.4c0,0,0.1,1.6,1.7,2.5c0,0-0.9-0.8,0-2.2
				c0,0,0.7-0.7,0.7-2.3C185.6,439.3,185.6,437.6,184,436.7z"/>
			<path fill="#414141" d="M186.3,440.8c0,0,0.9,0.9,0.2,2.2c0,0-0.9,1-0.7,2.4c0,0,0.2,1.6,1.9,2.4c0,0-0.9-0.8-0.2-2.2
				c0,0,0.6-0.8,0.6-2.4C188.1,443.2,188,441.6,186.3,440.8z"/>
			<path fill="#414141" d="M188.9,444.7c0,0,0.9,0.9,0.3,2.2c0,0-0.9,1-0.6,2.5c0,0,0.3,1.6,2,2.3c0,0-1-0.7-0.3-2.2
				c0,0,0.6-0.8,0.5-2.4C190.8,447.1,190.6,445.4,188.9,444.7z"/>
		</g>
		<g>
			<path fill="#414141" d="M191.7,448.6c0,0,1,0.8,0.4,2.2c0,0-0.8,1.1-0.4,2.5c0,0,0.4,1.6,2.1,2.2c0,0-1-0.7-0.4-2.2
				c0,0,0.5-0.8,0.4-2.4C193.7,450.8,193.5,449.2,191.7,448.6z"/>
			<path fill="#414141" d="M194.7,452.2c0,0,1,0.8,0.5,2.2c0,0-0.8,1.1-0.3,2.5c0,0,0.4,1.6,2.2,2.1c0,0-1-0.6-0.5-2.2
				c0,0,0.5-0.8,0.2-2.4C196.8,454.4,196.4,452.7,194.7,452.2z"/>
			<path fill="#414141" d="M197.8,455.7c0,0,1.1,0.7,0.6,2.1c0,0-0.7,1.1-0.2,2.5c0,0,0.5,1.5,2.3,2c0,0-1.1-0.6-0.6-2.1
				c0,0,0.4-0.9,0.1-2.4C200.1,457.7,199.6,456.1,197.8,455.7z"/>
			<path fill="#414141" d="M201.1,459c0,0,1.1,0.7,0.7,2.1c0,0-0.7,1.2,0,2.5c0,0,0.6,1.5,2.4,1.8c0,0-1.1-0.5-0.7-2.1
				c0,0,0.4-0.9,0-2.4C203.5,460.9,202.9,459.3,201.1,459z"/>
			<path fill="#414141" d="M204.6,462.1c0,0,1.1,0.6,0.8,2.1c0,0-0.6,1.2,0.1,2.5c0,0,0.7,1.5,2.5,1.7c0,0-1.1-0.5-0.8-2.1
				c0,0,0.4-0.9-0.2-2.4C207.1,463.9,206.4,462.3,204.6,462.1z"/>
			<path fill="#414141" d="M208.3,465c0,0,1.2,0.5,1,2c0,0-0.5,1.2,0.2,2.5c0,0,0.8,1.4,2.6,1.6c0,0-1.1-0.4-1-2
				c0,0,0.3-0.9-0.3-2.4C210.8,466.7,210.1,465.2,208.3,465z"/>
			<path fill="#414141" d="M212.1,467.8c0,0,1.2,0.5,1.1,2c0,0-0.5,1.3,0.4,2.5c0,0,0.8,1.4,2.7,1.4c0,0-1.2-0.3-1.1-2
				c0,0,0.3-0.9-0.4-2.4C214.7,469.3,213.9,467.8,212.1,467.8z"/>
			<path fill="#414141" d="M216,470.3c0,0,1.2,0.4,1.2,1.9c0,0-0.4,1.3,0.5,2.5c0,0,0.9,1.4,2.7,1.3c0,0-1.2-0.3-1.2-1.9
				c0,0,0.2-0.9-0.5-2.4C218.7,471.7,217.8,470.2,216,470.3z"/>
			<path fill="#414141" d="M220,472.6c0,0,1.2,0.4,1.3,1.8c0,0-0.3,1.3,0.6,2.4c0,0,1,1.3,2.8,1.1c0,0-1.2-0.2-1.3-1.8
				c0,0,0.2-1-0.7-2.4C222.8,473.9,221.9,472.5,220,472.6z"/>
			<path fill="#414141" d="M224.2,474.8c0,0,1.3,0.3,1.3,1.8c0,0-0.3,1.3,0.7,2.4c0,0,1,1.3,2.9,1c0,0-1.2-0.2-1.3-1.8
				c0,0,0.1-1-0.8-2.3C227,475.8,226,474.5,224.2,474.8z"/>
			<path fill="#414141" d="M228.5,476.7c0,0,1.3,0.2,1.4,1.7c0,0-0.2,1.3,0.9,2.4c0,0,1.1,1.2,2.9,0.8c0,0-1.2-0.1-1.4-1.7
				c0,0,0.1-1-0.9-2.3C231.4,477.6,230.3,476.3,228.5,476.7z"/>
			<path fill="#414141" d="M232.9,478.3c0,0,1.3,0.2,1.5,1.6c0,0-0.1,1.3,1,2.3c0,0,1.2,1.1,2.9,0.7c0,0-1.2,0-1.5-1.6
				c0,0,0-1-1-2.2C235.8,479.1,234.6,477.9,232.9,478.3z"/>
			<path fill="#414141" d="M237.3,479.8c0,0,1.3,0.1,1.6,1.5c0,0-0.1,1.3,1.1,2.3c0,0,1.2,1.1,3,0.5c0,0-1.2,0-1.6-1.5
				c0,0,0-1-1.1-2.2C240.3,480.4,239.1,479.2,237.3,479.8z"/>
			<path fill="#414141" d="M241.8,481c0,0,1.3,0,1.7,1.4c0,0,0,1.3,1.2,2.2c0,0,1.3,1,3,0.4c0,0-1.2,0.1-1.7-1.4c0,0-0.1-1-1.2-2.1
				C244.8,481.4,243.6,480.3,241.8,481z"/>
		</g>
	</g>
	<g>
		<g>
			<path fill="#414141" d="M246.2,481.9c0,0,1.3,0,1.8,1.4c0,0,0.1,1.3,1.3,2.1c0,0,1.3,0.9,3,0.2c0,0-1.2,0.2-1.8-1.4
				c0,0-0.1-1-1.4-2C249.2,482.2,247.9,481.2,246.2,481.9z"/>
			<path fill="#414141" d="M250.8,482.6c0,0,1.3-0.1,1.8,1.3c0,0,0.2,1.3,1.4,2.1c0,0,1.4,0.9,3,0.1c0,0-1.2,0.2-1.8-1.3
				c0,0-0.2-1-1.5-2C253.9,482.8,252.5,481.8,250.8,482.6z"/>
			<path fill="#414141" d="M255.5,483.1c0,0,1.3-0.2,1.9,1.2c0,0,0.2,1.3,1.6,2c0,0,1.4,0.8,3-0.1c0,0-1.2,0.3-1.9-1.2
				c0,0-0.2-0.9-1.6-1.9C258.5,483.1,257.1,482.2,255.5,483.1z"/>
			<path fill="#414141" d="M260.2,483.3c0,0,1.3-0.2,1.9,1.1c0,0,0.3,1.3,1.7,1.9c0,0,1.5,0.7,3-0.2c0,0-1.2,0.3-1.9-1.1
				c0,0-0.3-0.9-1.7-1.8C263.2,483.2,261.7,482.4,260.2,483.3z"/>
			<path fill="#414141" d="M264.8,483.3c0,0,1.3-0.3,2,1c0,0,0.4,1.3,1.8,1.8c0,0,1.5,0.7,3-0.4c0,0-1.1,0.4-2-1
				c0,0-0.3-0.9-1.7-1.7C267.8,483,266.3,482.3,264.8,483.3z"/>
			<path fill="#414141" d="M269.5,483.1c0,0,1.2-0.4,2,0.9c0,0,0.4,1.3,1.8,1.7c0,0,1.5,0.6,3-0.6c0,0-1.1,0.5-2-0.9
				c0,0-0.4-0.9-1.8-1.6C272.5,482.6,271,482,269.5,483.1z"/>
			<path fill="#414141" d="M274.2,482.6c0,0,1.2-0.4,2.1,0.8c0,0,0.5,1.3,1.9,1.6c0,0,1.6,0.5,2.9-0.7c0,0-1.1,0.5-2.1-0.8
				c0,0-0.4-0.9-1.9-1.5C277.1,482,275.6,481.4,274.2,482.6z"/>
			<path fill="#414141" d="M278.8,481.9c0,0,1.2-0.5,2.1,0.6c0,0,0.6,1.2,2,1.5c0,0,1.6,0.4,2.9-0.9c0,0-1.1,0.6-2.1-0.6
				c0,0-0.5-0.8-2-1.4C281.7,481.1,280.1,480.6,278.8,481.9z"/>
			<path fill="#414141" d="M283.4,480.9c0,0,1.2-0.6,2.2,0.5c0,0,0.6,1.2,2.1,1.4c0,0,1.6,0.3,2.9-1c0,0-1,0.6-2.2-0.5
				c0,0-0.5-0.8-2.1-1.3C286.2,480,284.6,479.6,283.4,480.9z"/>
			<path fill="#414141" d="M287.9,479.7c0,0,1.1-0.6,2.2,0.4c0,0,0.7,1.2,2.2,1.3c0,0,1.6,0.2,2.8-1.2c0,0-1,0.7-2.2-0.4
				c0,0-0.6-0.8-2.1-1.2C290.7,478.6,289.1,478.3,287.9,479.7z"/>
			<path fill="#414141" d="M292.3,478.3c0,0,1.1-0.7,2.2,0.3c0,0,0.7,1.1,2.2,1.2c0,0,1.6,0.2,2.7-1.3c0,0-1,0.7-2.2-0.3
				c0,0-0.6-0.8-2.2-1.1C295.1,477,293.4,476.8,292.3,478.3z"/>
			<path fill="#414141" d="M296.7,476.6c0,0,1.1-0.7,2.2,0.2c0,0,0.8,1.1,2.3,1.1c0,0,1.6,0.1,2.7-1.4c0,0-0.9,0.8-2.2-0.2
				c0,0-0.6-0.7-2.2-1C299.4,475.2,297.7,475.1,296.7,476.6z"/>
			<path fill="#414141" d="M301,474.7c0,0,1-0.8,2.2,0.1c0,0,0.9,1,2.3,0.9c0,0,1.6,0,2.6-1.6c0,0-0.9,0.8-2.2-0.1
				c0,0-0.7-0.7-2.3-0.9C303.6,473.2,301.9,473.1,301,474.7z"/>
		</g>
		<g>
			<path fill="#414141" d="M305.3,472.5c0,0,1-0.8,2.2-0.1c0,0,0.9,1,2.4,0.8c0,0,1.6-0.1,2.5-1.7c0,0-0.8,0.9-2.2,0
				c0,0-0.7-0.7-2.3-0.7C307.8,470.9,306.1,470.9,305.3,472.5z"/>
			<path fill="#414141" d="M309.3,470.1c0,0,0.9-0.9,2.2-0.2c0,0,1,0.9,2.4,0.7c0,0,1.6-0.2,2.4-1.9c0,0-0.8,0.9-2.2,0.2
				c0,0-0.8-0.6-2.4-0.6C311.7,468.4,310.1,468.5,309.3,470.1z"/>
			<path fill="#414141" d="M313.2,467.6c0,0,0.9-0.9,2.2-0.3c0,0,1,0.9,2.5,0.6c0,0,1.6-0.3,2.3-2c0,0-0.7,1-2.2,0.3
				c0,0-0.8-0.6-2.4-0.5C315.6,465.7,313.9,465.9,313.2,467.6z"/>
			<path fill="#414141" d="M317,464.8c0,0,0.8-1,2.2-0.4c0,0,1.1,0.8,2.5,0.4c0,0,1.6-0.4,2.2-2.1c0,0-0.7,1-2.2,0.4
				c0,0-0.8-0.5-2.4-0.4C319.3,462.8,317.6,463.1,317,464.8z"/>
			<path fill="#414141" d="M320.6,461.9c0,0,0.8-1,2.2-0.5c0,0,1.1,0.8,2.5,0.3c0,0,1.6-0.4,2.1-2.2c0,0-0.6,1-2.2,0.5
				c0,0-0.8-0.5-2.4-0.2C322.8,459.8,321.1,460.1,320.6,461.9z"/>
			<path fill="#414141" d="M324.1,458.8c0,0,0.7-1.1,2.1-0.6c0,0,1.1,0.7,2.5,0.2c0,0,1.5-0.5,2-2.3c0,0-0.6,1.1-2.1,0.6
				c0,0-0.9-0.4-2.4-0.1C326.1,456.5,324.5,457,324.1,458.8z"/>
			<path fill="#414141" d="M327.4,455.4c0,0,0.7-1.1,2.1-0.7c0,0,1.2,0.7,2.5,0c0,0,1.5-0.6,1.8-2.4c0,0-0.5,1.1-2.1,0.7
				c0,0-0.9-0.4-2.4,0C329.3,453.1,327.7,453.6,327.4,455.4z"/>
			<path fill="#414141" d="M330.5,452c0,0,0.6-1.1,2.1-0.8c0,0,1.2,0.6,2.5-0.1c0,0,1.5-0.7,1.7-2.5c0,0-0.5,1.1-2.1,0.8
				c0,0-0.9-0.4-2.4,0.2C332.3,449.5,330.8,450.1,330.5,452z"/>
			<path fill="#414141" d="M333.5,448.3c0,0,0.5-1.2,2-0.9c0,0,1.2,0.5,2.5-0.2c0,0,1.4-0.8,1.6-2.6c0,0-0.4,1.1-2,0.9
				c0,0-0.9-0.3-2.4,0.3C335.1,445.8,333.6,446.5,333.5,448.3z"/>
			<path fill="#414141" d="M336.2,444.5c0,0,0.5-1.2,2-1.1c0,0,1.3,0.5,2.5-0.4c0,0,1.4-0.8,1.4-2.7c0,0-0.3,1.2-2,1.1
				c0,0-0.9-0.3-2.4,0.4C337.7,441.9,336.2,442.7,336.2,444.5z"/>
			<path fill="#414141" d="M338.8,440.6c0,0,0.4-1.2,1.9-1.2c0,0,1.3,0.4,2.5-0.5c0,0,1.4-0.9,1.3-2.7c0,0-0.3,1.2-1.9,1.2
				c0,0-0.9-0.2-2.4,0.5C340.1,437.9,338.7,438.8,338.8,440.6z"/>
			<path fill="#414141" d="M341.1,436.6c0,0,0.4-1.2,1.8-1.3c0,0,1.3,0.3,2.4-0.6c0,0,1.3-1,1.1-2.8c0,0-0.2,1.2-1.8,1.3
				c0,0-1-0.2-2.4,0.7C342.3,433.8,340.9,434.7,341.1,436.6z"/>
			<path fill="#414141" d="M343.2,432.4c0,0,0.3-1.3,1.8-1.3c0,0,1.3,0.3,2.4-0.7c0,0,1.3-1,1-2.9c0,0-0.2,1.2-1.8,1.3
				c0,0-1-0.1-2.3,0.8C344.3,429.6,343,430.6,343.2,432.4z"/>
			<path fill="#414141" d="M345.1,428.1c0,0,0.2-1.3,1.7-1.4c0,0,1.3,0.2,2.4-0.9c0,0,1.2-1.1,0.8-2.9c0,0-0.1,1.2-1.7,1.4
				c0,0-1-0.1-2.3,0.9C346.1,425.2,344.8,426.3,345.1,428.1z"/>
		</g>
	</g>
	<g>
		<g>
			<path fill="#414141" d="M346.7,424c0,0,0.2-1.3,1.6-1.5c0,0,1.3,0.1,2.3-1c0,0,1.1-1.2,0.7-2.9c0,0,0,1.2-1.6,1.5c0,0-1,0-2.2,1
				C347.5,421.1,346.2,422.2,346.7,424z"/>
			<path fill="#414141" d="M348.1,419.6c0,0,0.1-1.3,1.5-1.6c0,0,1.3,0.1,2.3-1.1c0,0,1.1-1.2,0.6-3c0,0,0,1.2-1.5,1.6
				c0,0-1,0-2.2,1.1C348.8,416.6,347.6,417.8,348.1,419.6z"/>
			<path fill="#414141" d="M349.4,415c0,0,0-1.3,1.5-1.7c0,0,1.3,0,2.2-1.2c0,0,1-1.3,0.4-3c0,0,0.1,1.2-1.5,1.7c0,0-1,0.1-2.1,1.2
				C349.9,412.1,348.7,413.3,349.4,415z"/>
			<path fill="#414141" d="M350.3,410.5c0,0,0-1.3,1.4-1.8c0,0,1.3-0.1,2.1-1.3c0,0,1-1.3,0.2-3c0,0,0.2,1.2-1.4,1.8
				c0,0-1,0.1-2,1.3C350.7,407.5,349.6,408.8,350.3,410.5z"/>
			<path fill="#414141" d="M351.1,405.9c0,0-0.1-1.3,1.3-1.8c0,0,1.3-0.2,2.1-1.4c0,0,0.9-1.4,0.1-3c0,0,0.2,1.2-1.3,1.8
				c0,0-1,0.2-2,1.5C351.3,402.8,350.3,404.2,351.1,405.9z"/>
			<path fill="#414141" d="M351.6,401.2c0,0-0.2-1.3,1.2-1.9c0,0,1.3-0.2,2-1.5c0,0,0.8-1.4-0.1-3c0,0,0.3,1.2-1.2,1.9
				c0,0-0.9,0.2-1.9,1.6C351.6,398.2,350.7,399.6,351.6,401.2z"/>
			<path fill="#414141" d="M351.8,396.5c0,0-0.2-1.3,1.1-1.9c0,0,1.3-0.3,1.9-1.7c0,0,0.7-1.5-0.2-3c0,0,0.3,1.2-1.1,1.9
				c0,0-0.9,0.3-1.8,1.7C351.7,393.5,350.9,395,351.8,396.5z"/>
			<path fill="#414141" d="M351.9,391.9c0,0-0.3-1.3,1-2c0,0,1.3-0.4,1.8-1.7c0,0,0.7-1.5-0.4-3c0,0,0.4,1.1-1,2
				c0,0-0.9,0.3-1.7,1.7C351.6,388.8,350.8,390.3,351.9,391.9z"/>
			<path fill="#414141" d="M351.6,387.2c0,0-0.4-1.2,0.9-2c0,0,1.3-0.4,1.7-1.8c0,0,0.6-1.5-0.6-3c0,0,0.5,1.1-0.9,2
				c0,0-0.9,0.4-1.6,1.8C351.2,384.2,350.5,385.7,351.6,387.2z"/>
			<path fill="#414141" d="M351.1,382.5c0,0-0.4-1.2,0.8-2.1c0,0,1.3-0.5,1.6-1.9c0,0,0.5-1.6-0.7-2.9c0,0,0.5,1.1-0.8,2.1
				c0,0-0.9,0.4-1.5,1.9C350.5,379.6,349.9,381.1,351.1,382.5z"/>
			<path fill="#414141" d="M350.4,377.9c0,0-0.5-1.2,0.6-2.1c0,0,1.2-0.6,1.5-2c0,0,0.4-1.6-0.9-2.9c0,0,0.6,1.1-0.6,2.1
				c0,0-0.8,0.5-1.4,2C349.7,375,349.1,376.6,350.4,377.9z"/>
			<path fill="#414141" d="M349.5,373.3c0,0-0.6-1.2,0.5-2.2c0,0,1.2-0.6,1.4-2.1c0,0,0.3-1.6-1-2.9c0,0,0.6,1-0.5,2.2
				c0,0-0.8,0.5-1.3,2.1C348.5,370.4,348.1,372.1,349.5,373.3z"/>
		</g>
		<g>
			<path fill="#414141" d="M348.2,368.7c0,0-0.6-1.1,0.4-2.2c0,0,1.2-0.7,1.3-2.2c0,0,0.2-1.6-1.2-2.8c0,0,0.7,1-0.4,2.2
				c0,0-0.8,0.6-1.2,2.1C347.1,365.9,346.8,367.5,348.2,368.7z"/>
			<path fill="#414141" d="M346.8,364.2c0,0-0.7-1.1,0.3-2.2c0,0,1.1-0.7,1.2-2.2c0,0,0.2-1.6-1.3-2.7c0,0,0.7,1-0.3,2.2
				c0,0-0.8,0.6-1.1,2.2C345.6,361.5,345.3,363.1,346.8,364.2z"/>
			<path fill="#414141" d="M345.1,359.9c0,0-0.7-1.1,0.2-2.2c0,0,1.1-0.8,1.1-2.3c0,0,0.1-1.6-1.4-2.7c0,0,0.8,0.9-0.2,2.2
				c0,0-0.7,0.6-1,2.2C343.7,357.2,343.6,358.8,345.1,359.9z"/>
			<path fill="#414141" d="M343.2,355.6c0,0-0.8-1,0.1-2.2c0,0,1-0.9,0.9-2.3c0,0,0-1.6-1.6-2.6c0,0,0.8,0.9-0.1,2.2
				c0,0-0.7,0.7-0.9,2.3C341.7,353,341.6,354.6,343.2,355.6z"/>
			<path fill="#414141" d="M341.1,351.4c0,0-0.8-1,0-2.2c0,0,1-0.9,0.8-2.4c0,0-0.1-1.6-1.7-2.5c0,0,0.9,0.8,0,2.2
				c0,0-0.7,0.7-0.7,2.3C339.4,348.9,339.5,350.6,341.1,351.4z"/>
			<path fill="#414141" d="M338.7,347.4c0,0-0.9-0.9-0.2-2.2c0,0,0.9-1,0.7-2.4c0,0-0.2-1.6-1.8-2.4c0,0,0.9,0.8,0.2,2.2
				c0,0-0.6,0.7-0.6,2.4C337,344.9,337.1,346.6,338.7,347.4z"/>
			<path fill="#414141" d="M336.2,343.4c0,0-0.9-0.9-0.3-2.2c0,0,0.9-1,0.6-2.5c0,0-0.3-1.6-2-2.3c0,0,1,0.7,0.3,2.2
				c0,0-0.6,0.8-0.5,2.4C334.3,341.1,334.5,342.8,336.2,343.4z"/>
			<path fill="#414141" d="M333.5,339.7c0,0-1-0.8-0.4-2.2c0,0,0.8-1.1,0.4-2.5c0,0-0.4-1.6-2.1-2.2c0,0,1,0.7,0.4,2.2
				c0,0-0.5,0.8-0.4,2.4C331.4,337.4,331.7,339.1,333.5,339.7z"/>
			<path fill="#414141" d="M330.5,336c0,0-1-0.8-0.5-2.2c0,0,0.8-1.1,0.3-2.5c0,0-0.4-1.6-2.2-2.1c0,0,1,0.6,0.5,2.2
				c0,0-0.5,0.8-0.2,2.4C328.4,333.9,328.8,335.5,330.5,336z"/>
			<path fill="#414141" d="M327.4,332.5c0,0-1.1-0.7-0.6-2.1c0,0,0.7-1.1,0.2-2.5c0,0-0.5-1.5-2.3-2c0,0,1.1,0.6,0.6,2.1
				c0,0-0.4,0.9-0.1,2.4C325.2,330.5,325.6,332.1,327.4,332.5z"/>
			<path fill="#414141" d="M324.1,329.2c0,0-1.1-0.7-0.7-2.1c0,0,0.7-1.2,0-2.5c0,0-0.6-1.5-2.4-1.8c0,0,1.1,0.5,0.7,2.1
				c0,0-0.4,0.9,0,2.4C321.7,327.3,322.3,328.9,324.1,329.2z"/>
			<path fill="#414141" d="M320.6,326.1c0,0-1.1-0.6-0.8-2.1c0,0,0.6-1.2-0.1-2.5c0,0-0.7-1.5-2.5-1.7c0,0,1.1,0.5,0.8,2.1
				c0,0-0.4,0.9,0.2,2.4C318.2,324.3,318.8,325.9,320.6,326.1z"/>
			<path fill="#414141" d="M317,323.1c0,0-1.2-0.5-0.9-2c0,0,0.5-1.2-0.2-2.5c0,0-0.8-1.4-2.6-1.6c0,0,1.1,0.4,0.9,2
				c0,0-0.3,0.9,0.3,2.4C314.5,321.5,315.1,323,317,323.1z"/>
			<path fill="#414141" d="M313.2,320.4c0,0-1.2-0.5-1-2c0,0,0.5-1.3-0.4-2.5c0,0-0.8-1.4-2.7-1.4c0,0,1.2,0.4,1,2
				c0,0-0.3,0.9,0.4,2.4C310.6,318.9,311.4,320.4,313.2,320.4z"/>
		</g>
		<g>
			<path fill="#414141" d="M309.3,317.8c0,0-1.2-0.4-1.1-1.9c0,0,0.4-1.3-0.5-2.5c0,0-0.9-1.4-2.7-1.3c0,0,1.2,0.3,1.1,1.9
				c0,0-0.2,0.9,0.5,2.4C306.6,316.4,307.4,317.9,309.3,317.8z"/>
			<path fill="#414141" d="M305.2,315.5c0,0-1.2-0.4-1.2-1.8c0,0,0.3-1.3-0.6-2.4c0,0-1-1.3-2.8-1.2c0,0,1.2,0.2,1.2,1.8
				c0,0-0.2,1,0.7,2.4C302.5,314.2,303.4,315.6,305.2,315.5z"/>
			<path fill="#414141" d="M301,313.4c0,0-1.3-0.3-1.3-1.8c0,0,0.3-1.3-0.7-2.4c0,0-1-1.3-2.9-1c0,0,1.2,0.2,1.3,1.8
				c0,0-0.1,1,0.8,2.3C298.2,312.3,299.2,313.6,301,313.4z"/>
			<path fill="#414141" d="M296.8,311.5c0,0-1.3-0.2-1.4-1.7c0,0,0.2-1.3-0.9-2.4c0,0-1.1-1.2-2.9-0.9c0,0,1.2,0.1,1.4,1.7
				c0,0-0.1,1,0.9,2.3C293.9,310.5,295,311.8,296.8,311.5z"/>
			<path fill="#414141" d="M292.4,309.8c0,0-1.3-0.2-1.5-1.6c0,0,0.1-1.3-1-2.3c0,0-1.2-1.1-2.9-0.7c0,0,1.2,0,1.5,1.6
				c0,0,0,1,1,2.2C289.5,309,290.6,310.2,292.4,309.8z"/>
			<path fill="#414141" d="M288,308.3c0,0-1.3-0.1-1.6-1.5c0,0,0.1-1.3-1.1-2.3c0,0-1.2-1.1-3-0.5c0,0,1.2,0,1.6,1.5
				c0,0,0,1,1.1,2.2C285,307.7,286.2,308.9,288,308.3z"/>
			<path fill="#414141" d="M283.4,307.1c0,0-1.3,0-1.7-1.5c0,0,0-1.3-1.2-2.2c0,0-1.3-1-3-0.4c0,0,1.2-0.1,1.7,1.5
				c0,0,0.1,1,1.2,2.1C280.5,306.6,281.7,307.7,283.4,307.1z"/>
			<path fill="#414141" d="M278.9,306.1c0,0-1.3,0-1.8-1.4c0,0-0.1-1.3-1.3-2.1c0,0-1.3-0.9-3-0.2c0,0,1.2-0.2,1.8,1.4
				c0,0,0.1,1,1.4,2C275.9,305.8,277.2,306.9,278.9,306.1z"/>
			<path fill="#414141" d="M274.2,305.4c0,0-1.3,0.1-1.8-1.3c0,0-0.2-1.3-1.4-2.1c0,0-1.4-0.9-3-0.1c0,0,1.2-0.2,1.8,1.3
				c0,0,0.2,1,1.5,2C271.2,305.2,272.6,306.2,274.2,305.4z"/>
			<path fill="#414141" d="M269.6,304.9c0,0-1.3,0.2-1.9-1.2c0,0-0.2-1.3-1.6-2c0,0-1.4-0.8-3,0.1c0,0,1.2-0.3,1.9,1.2
				c0,0,0.2,0.9,1.6,1.9C266.6,304.9,268,305.8,269.6,304.9z"/>
		</g>
	</g>
</g>
<g>
	<g>
		<polygon fill="#A7A7A7" points="228.7,429.9 229.9,431.3 234.4,432.6 239.3,431.8 242.6,430.8 245.1,430.5 250.8,430.9 
			252.4,432.3 258.7,430.1 260.9,430.4 261.9,430.8 265.5,430.5 267,429.8 268.8,428.4 270.5,428.1 272.7,428.1 274.1,427.2 
			275.5,426.9 276.7,427.1 278.6,426.9 280.1,427 281.6,426.7 283.4,425.3 304.3,425.5 312.7,425.6 311.9,423.1 312.4,422 
			312.4,420.9 311.1,419.5 310.7,417.8 311.2,416.9 311,365 276.3,364.3 255.3,363.5 233,362.5 234,366 234.6,367.9 236.3,367.5 
			237.1,370.2 236.4,373 235.2,373 234.7,373.4 235.1,374.3 238.3,379.3 240.3,383 240.4,384.1 238.3,387.4 238,389.6 237.4,390.7 
			237.2,395.4 235.5,396.7 234.4,396.1 234.2,395.4 234.5,394.5 234.5,393.5 234.1,392.6 233.7,390.9 233.8,388.6 235.2,387.1 
			235.2,385.9 233.8,381.2 232.7,380.1 231.9,379.8 229.8,380.3 227.2,379.4 222.8,379.1 217,377.4 205.6,372.8 205.8,375.7 
			205.6,377.8 206.3,381.6 209.3,386.7 209.4,388.5 209.8,392.7 210.3,394.4 211.1,396.2 211.2,398.8 211.5,400 212,402.2 
			213.2,400.9 213.7,401.3 213.8,401.6 215.5,402.6 213.6,403.5 213.4,404 212.2,404 211.8,404.4 212.6,407.3 213.8,407.4 
			214.7,408.5 214.1,409.6 214.3,410.5 214.6,411.1 213.1,413.3 212.8,412.7 212.9,412.2 212.9,411.4 212.4,410 212.1,409.9 
			211.6,410.2 211.8,410.8 212,411.7 211.8,412.9 211.7,415.4 211.8,416.2 212.3,416.2 213.2,416.2 216,417.2 216.4,417.5 
			219.1,418 220.7,419 221.1,419.5 223.4,419.3 226.8,420.8 228,423.9 227.9,424.9 		"/>
	</g>
	<path fill="#8D8D8D" d="M268.8,428.4l1.7-0.4l2.1,0l1.5-0.8l1.4-0.3l1.2,0.2l1.9-0.3l1.5,0.2l1.4-0.3l1.8-1.4l4.2,0
		c2.5-7.4,8.1-16.7,8.1-16.7c7.5-18.2,1.7-27.2,1.7-27.2c-8.8-15.5-21.1-7.6-24.2-6.2c-0.1-2,0.3-6.2,4.2-10.9l-1.1,0l-1.3-0.1
		c-0.5,0.9-1.1,1.9-1.6,3c-0.2-1.1-0.4-2.2-0.8-3.1l-17.3-0.7l-2.4-0.1c0,0,0,0,0,0c0.7,1.3,1.8,2.3,3.1,3.2
		c0.5,0.3,1.4,0.2,1.5,0.9c-0.8,0.1-1.2-0.2-2.1,0.2c0.8,2.3,3.7,2.9,5.1,4.6c-5.9-0.3-12.5,1.6-15.7,9.9c0,0-5.4,18,6.2,27.5
		c0,0,8.3,10.5,10.6,18c0,0,1.7,2.2,4.2,2.5l1.2-0.5L268.8,428.4z M271.8,375.1l0.2-0.1l-0.1-0.1l0,0c0-0.1,0.1-0.2,0.1-0.3
		c0,0.2,0,0.5,0.1,0.8C272,375.2,271.9,375.2,271.8,375.1C271.8,375.1,271.8,375.1,271.8,375.1z"/>
</g>
<g>
	<path fill="#787878" d="M269.2,372.4l-0.2,0.1c-2.4,0.6-4.6,0.8-6.4,0.2c-1.8-0.5-3.4-1.3-4.7-2.4c-0.1-0.1-0.7,0.3-1,0.3
		c0.3-0.6,1.2-0.3,1.1-0.5c-1.3-1.9-4.5-2.5-5.3-4.9c0.9-0.4,1.3-0.2,2.1-0.2c-0.1-0.7-1-0.6-1.5-0.9c-1.3-0.9-2.4-1.9-3.1-3.2
		c-0.1-0.2,0.1-0.6,0.4-0.7c0.7-0.1,1.1,0.3,1.8,0.1c-1.7-0.6-2.1-2.3-2.9-3.8c-0.1-0.2,0.2-0.7,0.2-1c0-0.1-0.1-0.2-0.2-0.3
		c1.1-0.7,1.6,0.2,2.8-0.4c-0.7-0.3-1-1-1.2-1.7c-0.1-0.2,0.3-0.7,0.2-0.9c-1-1.9-1.7-3.8-2.7-5.7L269.2,372.4z"/>
	<g>
		<path fill="#BCBCBC" d="M268.9,372.4l0.2-0.1c1.1-2.2,1.8-4.3,1.6-6.2c-0.1-1.9-0.5-3.6-1.3-5.2c-0.1-0.1,0.4-0.6,0.5-0.9
			c-0.6,0.2-0.6,1.1-0.7,0.9c-1.6-1.7-1.4-4.9-3.6-6.3c-0.6,0.7-0.4,1.2-0.7,2c-0.7-0.3-0.4-1.1-0.6-1.7c-0.6-1.5-1.3-2.7-2.5-3.7
			c-0.1-0.1-0.6,0-0.8,0.3c-0.3,0.6,0.1,1.1-0.3,1.8c-0.2-1.8-1.8-2.6-3-3.6c-0.2-0.2-0.7,0-1-0.1c-0.1,0-0.2-0.2-0.3-0.3
			c-1,0.9-0.2,1.6-1,2.6c-0.1-0.8-0.8-1.2-1.4-1.6c-0.2-0.1-0.8,0.1-0.9,0c-1.7-1.4-3.4-2.5-4.9-3.9L268.9,372.4z"/>
	</g>
</g>
<path fill="#787878" d="M270.5,374c0,0-1.7-6.7,5.9-14.2c0,0,0.4-1.3-1.7-1.4c0,0-6.7,6.4-5.4,15.4L270.5,374z"/>
<path fill="#414141" stroke="#414141" stroke-width="0.6328" d="M269.9,372.9c0,0,15.3-7.8,23.7,4.8c0,0,8,9.2-1.3,29.7
	c0,0-5.4,10.1-8.2,17.4c0,0-3.4,5.1-8.4,1.5c0,0-1,1.5-2.7,1.5l-3.2-0.1c-1.7,0-2.8-1.4-2.8-1.4c-4.7,3.9-8.4-1-8.4-1
	c-2.3-7.5-10.6-18-10.6-18c-8.9-17.6-2.2-27.1-2.2-27.1c6.6-15,23.3-7.5,23.3-7.5L269.9,372.9z"/>
<circle fill="#FDFDFD" cx="285.5" cy="381.3" r="3.1"/>
<g>
	<path fill="#FFFFFF" d="M193.8,399.8l2,2.7l1.4,2.9l1.2,4.8l0.1,3.4c-0.5,3.6-1.8,6.4-4.6,7.6c-3.4,1.4-7.4,0.1-10-3.5
		c-1.2-1.9-2.1-4.1-2.6-6.3c-0.6-2.7-0.6-5.5-0.1-8.1l3.3,0.5l0.1,0.2c-1.9,1-3.1,3.4-3,6.1l0.7,2.9c2.5,6.8,11,6.1,14,1.5
		c1.3-2.2,1.5-4.4,0.8-7.2c-0.8-3.2-3.3-5.4-5.9-5.7C192.1,400.9,193,400.3,193.8,399.8z"/>
	<path fill="#FFFFFF" d="M196.4,386.4l-0.4,7.5c-0.4-1.6-1.7-2-3-2.2l-10.8-0.6c-0.8-0.1-1.7,0.5-1.9,1.4l-0.1-0.2l0.4-6.3
		c0.3,0.7,0.7,1.1,1.3,1.4l12.7,0.8C195.4,388.1,195.8,387.2,196.4,386.4z"/>
	<path fill="#FFFFFF" d="M191.3,358.4l-0.1,0.2c-2.3,1.3-4.3,3.3-5.2,6.1c-0.1,0.2-0.1,0.6-0.1,0.8c0,0.1,0.1,0.3,0.1,0.4
		c0.5,0.4,1,0.7,1.5,0.9l9.9,3.4c1.1,0.3,2.7,0.1,3.3-1.4l0.2,0.1l-2.6,7.7c0,0-0.1,0-0.2-0.1c0-0.4,0-0.7,0.1-1.1
		c-0.3-1.1-0.9-1.5-1.8-2l-10.8-3.7c-0.3,0-0.6,0-0.9,0c-1.3,0.7-1.4,3-1.4,4.3c0,0.6,0.1,1.4,0.1,2l0.8,2.8l-0.1,0.2l-2.8-2.1
		l6.3-18.5L191.3,358.4z"/>
	<path fill="#FFFFFF" d="M205,334.2l-0.3,1.7c0,3.7,0.5,7.3,1.4,10.7l4.1,3.3c0.7,0.6,1.7,0.3,2.6-0.2l-4.7,5.9
		c0.3-1,0.3-1.7-0.2-2.4l-4.1-3.2c-3.7,0-7.6,0.3-11.3,1c-0.5,0.2-1,0.4-1.4,0.6l-0.1-0.2l4.7-5.8l0.2,0.1c-0.3,0.5-0.4,1.1-0.2,1.5
		c0.2,0.2,0.6,0.3,0.9,0.4c2.8-0.2,5.7-0.5,8.6-0.9c-0.2-2.7-0.7-5.3-1.4-7.8c-0.2-0.4-0.5-0.9-1-0.9c-0.4,0.1-0.9,0.4-1.3,0.6
		l0-0.2l3.2-4L205,334.2z"/>
	<path fill="#FFFFFF" d="M233.4,325.4c1.6,2.3,0.5,5.4-2.2,7.5c-0.7,0.5-1.4,0.9-2.2,1.2c-2.9,1.2-5.8,0.7-7.3-1.2
		c-1.1-1.7-0.9-4,0.7-5.9c1.1-1.3,2.5-2.3,4.3-2.9C229.2,323,232,323.6,233.4,325.4z M229.1,324.6c-1.2-0.5-2.6-0.4-3.9,0.3
		c-1.4,0.7-2.5,2.1-2.4,3.5c0.1,2.7,1.9,6,5.5,5.6c1.4-0.3,2.5-1.1,3.3-2.2C233.3,329,231.5,325.8,229.1,324.6z"/>
	<path fill="#FFFFFF" d="M248.4,318.6l-1.7-0.6c-1.1-0.1-2.3-0.1-3.4,0.2l-3.2,0.8l1,3.8l3.8-1c1-0.3,1.7-0.9,1.8-1.7l0.1,0l0.7,2.8
		l-0.1,0c-0.3-0.4-1-0.7-1.6-0.6c-1.4,0.1-2.9,0.4-4.3,0.9l-0.4,0.1l0.9,3.4c0.1,0.3,0.3,0.6,0.7,0.8c0.3,0,0.6,0.1,0.9,0.1
		l-0.1,0.1l-4.5,1.2l0-0.1c0.7-0.4,1.1-1,1-1.7l-1.7-6.4c-0.1-0.6-0.8-0.8-1.4-1.1l10.2-2.7C247.8,317.4,248.2,318,248.4,318.6z"/>
	<path fill="#FFFFFF" d="M281.6,313.3l-1.6,0.7c-3.1,2.1-5.9,4.4-8.2,7l-0.5,5.3c-0.1,0.9,0.6,1.6,1.6,2.1l-7.5-0.8
		c1-0.3,1.6-0.7,1.9-1.5l0.5-5.2c-2-3.1-4.4-6.2-7-9c-0.4-0.3-0.9-0.6-1.3-0.9l0.1-0.2l7.4,0.7l0,0.2c-0.6,0-1.1,0.3-1.4,0.7
		c0,0.3,0.1,0.7,0.2,1c1.7,2.3,3.5,4.5,5.4,6.7c2.2-1.7,4.1-3.5,5.8-5.4c0.2-0.4,0.5-0.9,0.3-1.3c-0.3-0.3-0.8-0.5-1.2-0.7l0.2-0.1
		l5.1,0.5L281.6,313.3z"/>
	<path fill="#FFFFFF" d="M299.7,337.7l-7.3-3.1c1.2,0.2,1.9-0.6,1.9-1.5c-0.1-2-0.4-4-0.8-5.9l-6.6-2.8l-3.9,2.9
		c-0.9,0.7-1.3,1.8-0.2,2.8c0.2,0.2,0.4,0.4,0.5,0.6l-5.7-2.5c1.4-0.3,2.6-0.7,3.8-1.3c4.7-2.9,9.2-5.9,13.7-9l0.2,0.1
		c0.5,6,1.7,12.1,3.4,18C298.9,336.5,299.3,337.1,299.7,337.7z M293.4,326.5c-0.2-2-0.5-4-0.9-6c-1.8,1-3.5,2.1-5,3.5L293.4,326.5z"
		/>
	<path fill="#FFFFFF" d="M317.3,354.9l-0.1,0l-4-4c0.7-3.2,1-6.4,1-9.8c-0.2-1-0.9-1.9-2-1.9c-0.4,0.1-0.8,0.2-1,0.4l-2.5,2.4
		c-0.6,0.5-1,1.2-1.1,2.2c0,0.4,0.2,1,0.5,1.4l-5.2-5.3c1.1,0.6,2.2,0.2,3-0.4l8.3-8.1c0.3-0.3,0.5-0.8,0.7-1.1c0-0.3-0.2-0.7-0.3-1
		c0,0,0-0.1,0.1-0.2l4.3,4.4c-0.6-0.4-1.2-0.4-1.7-0.2l-4.6,4.5c3.3,1,6.7,1.6,10.1,1.9c0.5,0,0.8-0.3,1-0.7c0-0.3-0.1-0.6-0.2-0.9
		l4.5,4.6c-0.3,0-0.7-0.1-1-0.3c-0.1-0.1-0.2-0.1-0.3-0.2c-4.1-1.5-8.3-2.5-12.4-3.2l2.1,2.8c0.7,1,0.9,2.3,0.9,3.4
		c-0.4,2.6-0.5,5.3-0.3,8C317.1,354.1,317.2,354.5,317.3,354.9z"/>
	<path fill="#FFFFFF" d="M322.8,365.8l-3.6-6.6c1.1,1.1,2.5,0.8,3.7,0.3l9.5-5.1c0.7-0.3,1.2-1.3,0.9-2.2l0.2,0.1l3,5.6
		c-0.6-0.5-1.2-0.6-1.8-0.5l-11.2,6.1C322.7,363.9,322.8,364.8,322.8,365.8z"/>
	<path fill="#FFFFFF" d="M330,395.1l-1.2-7.4l0.2,0c0.1,0.3,0.3,0.6,0.5,0.8c0.7,0.6,1.6,0.8,2.4,0.5l11-1.9
		c-5.1-1.8-10.3-3.8-15.4-5.8c4.2-3.6,8.4-7.2,12.7-10.7l-10.3,1.7c-0.8,0.3-1.6,0.8-2.3,1.4c-0.2,0.4-0.5,0.9-0.6,1.5
		c-0.1,0-0.1,0.2-0.2,0.3l-1-6c1.1,1.2,2.2,1.6,3.5,2l10.9-1.8c0.3-0.1,0.7-0.4,0.9-0.6c0.2-0.4,0.3-0.9,0.4-1.3l0.2,0.1l0.9,5.1
		c-3.6,2.9-7.2,6-10.5,9.2c4.3,1.8,8.6,3.3,12.9,4.7l0.9,5.1l-0.2,0.1c-0.1-0.3-0.3-0.6-0.5-0.9c-0.4-0.2-0.9-0.3-1.4-0.2l-11.4,2
		c-1,0.2-1.9,0.9-1.9,2.2C330.2,395.1,330.1,395.1,330,395.1z"/>
	<path fill="#FFFFFF" d="M323.8,422.1l2-7.7c0,1.3,0.9,1.8,1.8,1.6c1.9-0.4,3.9-1,5.8-1.7l1.8-6.9l-3.5-3.4c-0.9-0.7-2-1-2.8,0.2
		c-0.2,0.2-0.3,0.4-0.5,0.6l1.5-6c0.5,1.3,1.1,2.5,1.9,3.5c3.6,4.1,7.3,8.1,11,12.1l0,0.2c-5.9,1.5-11.7,3.5-17.3,6.2
		C324.9,421.2,324.3,421.6,323.8,422.1z M334,414.1c1.9-0.5,3.9-1.1,5.8-1.8c-1.3-1.7-2.6-3.1-4.2-4.4L334,414.1z"/>
</g>
<g>
	<path fill="#FFFFFF" d="M207.7,450.2c-0.1,0.4-0.6-0.6-1-1c-0.4-0.4-1.5-1-0.9-1c0.6,0,0.7,0.3,0.9,0l4.6-4.5c0.5-0.5-0.2-0.4,0-1
		c0.1-0.4,0.6,0.6,1,1c0.4,0.4,1.5,0.9,0.9,1c-0.5,0.1-0.5-0.5-1,0l-4.6,4.5C207.1,449.7,207.8,449.6,207.7,450.2z"/>
	<path fill="#FFFFFF" d="M217.9,451.7c-0.2,0-0.3-0.2-0.5-0.2c-0.4,0.1-0.9,0.7-1.3,1.2l-2.3,2.7c-0.1,0.1-0.3,0.2-0.4,0.2
		c-0.2-0.2-0.1-6.9-0.1-6.9l-2,2.4c-0.5,0.5-1,1.2-1,1.5c0,0.2,0.2,0.3,0.2,0.5c0,0.4-0.4-0.3-0.7-0.6c-0.2-0.2-0.9-0.5-0.6-0.5
		c0.3-0.1,0.3,0.2,0.5,0.1c0.4-0.2,0.9-0.6,1.3-1.1l2.2-2.6c0.1-0.1,0.1-0.1,0.1-0.2c0.1-0.3-0.5-0.3-0.4-0.6
		c0.1-0.3,0.5,0.3,0.8,0.5c0.2,0.2,0.4,0.2,0.6,0.5l0,5.8l1.5-1.8c0.4-0.5,0.8-1.1,0.9-1.4c0-0.2-0.2-0.3-0.2-0.5
		c0-0.3,0.4,0.3,0.6,0.5C217.5,451.3,218.3,451.6,217.9,451.7z"/>
	<path fill="#FFFFFF" d="M221,459.2c0.1,0.2-1.2,1-2.9-0.2c-1.8-1.2-2-2.7-1-4.3c1.2-1.8,2.9-1.6,4.4-0.8c0.7,0.4,0.6,1.4,1.4,1.6
		c0.2,0,0.3-0.1,0.4,0.1c0.2,0.2-0.5,0.3-0.8,0.5c-0.3,0.2-0.8,0.8-0.9,0.6c-0.1-0.2,0.3-0.4,0.4-0.6c0.2-0.8-0.1-1.4-0.8-1.8
		c-1.3-0.9-2.5,0-3.3,1.1c-0.8,1.2-0.8,2.8,0.3,3.5C219.8,459.9,220.9,459,221,459.2z"/>
	<path fill="#FFFFFF" d="M229.1,462.1c-0.9,1.6-2.9,1.8-4.4,0.9c-1.5-0.8-2.3-2.6-1.5-4.1c0.8-1.6,2.9-2,4.4-1.2
		C229.2,458.5,230.1,460.5,229.1,462.1z M228.1,461.6c0.7-1.3,0.6-3-0.6-3.7c-1.2-0.6-2.6,0.3-3.3,1.5c-0.7,1.2-0.5,2.7,0.6,3.4
		C226,463.5,227.5,462.8,228.1,461.6z"/>
	<path fill="#FFFFFF" d="M234.3,467.4c0.1,0.4-0.6-0.2-0.9-0.3c-0.2-0.1-0.5-0.2-0.5-0.2s-0.2-2.2-0.4-2.7c-0.2-0.4-0.4-0.5-0.4-0.5
		l-0.8,1.9c-0.2,0.5,0.4,0.3,0.5,0.7c0.1,0.5-0.7-0.2-1.1-0.4c-0.4-0.2-1.4-0.2-1-0.5c0.4-0.2,0.5,0.4,0.7-0.1l1.9-4.5
		c0-0.1,0-0.1,0-0.2c0-0.2-0.4-0.1-0.4-0.4c-0.1-0.4,0.6,0.2,1.1,0.4c0.4,0.1,0.6,0.1,1,0.3c1,0.5,2.1,1.3,1.7,2.4
		c-0.5,1.2-2.1,0.9-2.1,0.9s0.3,0.8,0.4,1.4c0.1,0.6,0.2,1.6,0.2,1.6S234.2,467.2,234.3,467.4z M234.3,462.9c0.3-0.7,0-1.5-0.6-1.8
		c-0.2-0.1-0.5-0.1-0.5-0.1c-0.1,0.1-0.1,0.1-0.2,0.2l-0.9,2.1C232.7,464,233.9,463.9,234.3,462.9z"/>
	<path fill="#FFFFFF" d="M241.4,465.4c-0.5,1.5-2,1.3-2,1.3l-1.4-0.4l-0.6,1.7c-0.2,0.5,0.2,0.4,0.4,0.6c0.2,0.3-0.7-0.3-1-0.3
		c-0.4-0.1-1.3-0.1-1-0.4c0.1-0.1,0.5,0.2,0.6-0.3l1.5-4.6c0-0.1,0-0.2,0-0.3c-0.1-0.2-0.5,0-0.4-0.3c0-0.1,0.2-0.2,0.3-0.1
		c0.1,0,0.5,0.3,0.8,0.4c0.6,0.3,1.6,0.5,1.6,0.5C241.1,463.5,241.7,464.5,241.4,465.4z M240.4,465.1c0.1-0.4,0-1.4-0.6-1.7
		c-0.3-0.1-0.8-0.3-0.9-0.1l-0.8,2.4c0,0.1,0,0.3,0,0.3S239.8,466.8,240.4,465.1z"/>
	<path fill="#FFFFFF" d="M249.2,468.7c-0.5,1.8-2.3,2.5-4,2.1c-1.6-0.4-2.9-1.8-2.6-3.6c0.3-1.8,2.2-2.7,3.9-2.4
		C248.3,465.2,249.7,466.8,249.2,468.7z M248.1,468.4c0.3-1.4-0.2-3.1-1.6-3.4c-1.3-0.2-2.4,1-2.7,2.4c-0.3,1.3,0.3,2.7,1.5,3.1
		C246.5,470.9,247.8,469.8,248.1,468.4z"/>
	<path fill="#FFFFFF" d="M255.6,472.3c0.2,0.4-0.6,0-1-0.1c-0.2,0-0.6,0-0.6,0s-0.8-2-1.1-2.5c-0.3-0.4-0.5-0.3-0.5-0.3l-0.2,2
		c-0.1,0.5,0.4,0.2,0.6,0.5c0.2,0.4-0.7,0-1.2-0.1c-0.4-0.1-1.4,0.1-1.1-0.2c0.3-0.3,0.6,0.2,0.6-0.3l0.6-4.9c0-0.1,0-0.1,0-0.2
		c-0.1-0.2-0.4,0-0.5-0.3c-0.2-0.4,0.7,0.1,1.1,0.1c0.4,0,0.6-0.1,1,0c1.1,0.2,2.4,0.7,2.3,1.9c-0.2,1.3-1.8,1.5-1.8,1.5
		s0.5,0.7,0.7,1.2c0.3,0.5,0.6,1.4,0.6,1.4S255.5,472.2,255.6,472.3z M254.4,468c0.1-0.7-0.4-1.5-1.1-1.6c-0.2,0-0.5,0-0.5,0
		c-0.1,0.1-0.1,0.2-0.1,0.3l-0.3,2.3C253.2,469.5,254.3,469,254.4,468z"/>
	<path fill="#FFFFFF" d="M263.4,472.6c0,0.3-0.6,0.1-1.1,0.1c-0.4,0-1,0.1-1-0.1c0-0.3,0.6,0,0.4-0.5l-0.4-1.2c0-0.1,0-0.2-0.1-0.2
		c-0.1,0-0.1,0-0.2,0l-1.6,0c-0.1,0-0.2,0-0.2,0c-0.1,0-0.3,0.6-0.3,1c-0.1,0.3-0.2,0.7-0.1,0.8c0.1,0.1,0.4,0.1,0.4,0.2
		c0,0.3-0.6,0-1,0c-0.3,0-0.8,0.1-0.8-0.1c0-0.1,0.3-0.1,0.4-0.2c0.3-0.2,1.5-2.7,1.5-2.7s1.2-2.9,1.4-2.9c0.1,0,0.2,0.1,0.2,0.2
		l1.9,5.4C262.9,472.6,263.4,472.4,263.4,472.6z M261,470.4c0.1-0.1-0.7-2.2-0.8-2.2c-0.1,0-1,2.1-0.9,2.2
		C259.4,470.4,261,470.4,261,470.4z"/>
	<path fill="#FFFFFF" d="M269.2,466.4c0.2,0.1,0,0.4,0,0.5c0,0.3,0.1,0.4,0,0.7c0,0.2-0.1,0.6-0.2,0.5c-0.2-0.2,0-0.6-0.1-0.7
		c-0.1-0.5-1.8-0.6-1.9-0.5c0,0,0,0.1,0,0.1l0.3,4.9c0,0.6,0.5,0.2,0.6,0.4c0.2,0.4-0.7,0.1-1.1,0.2c-0.4,0-1.3,0.3-1.1-0.1
		c0.2-0.3,0.6,0.1,0.6-0.5l-0.3-4.8c0-0.1,0-0.1,0-0.2c-0.1-0.1-1.8,0.4-1.9,0.8c0,0,0,0.5-0.1,0.5c-0.2,0-0.2-0.3-0.2-0.5
		c0-0.3,0.1-0.4,0.1-0.6c0-0.2-0.1-0.5,0-0.6c0.1,0,0.2,0.2,0.4,0.2l4.8-0.3C269,466.6,269.1,466.4,269.2,466.4z"/>
	<path fill="#FFFFFF" d="M275.9,469.7c0.3,0,0.1,0.8,0.1,1.2c0,0.4,0.2,1-0.1,1c-0.1,0-0.2-0.3-0.2-0.3s-0.1,0-0.2,0l-3.7,0.5
		c-0.1,0-0.3,0.1-0.3-0.1c-0.1-0.3,0.6-0.2,0.5-0.5l-0.7-5c0-0.1-0.1-0.1-0.2-0.2c-0.1,0-0.4,0.4-0.5,0c0-0.1,0.1-0.2,0.2-0.2
		c0.2,0,0.2,0.1,0.3,0l3.4-0.5c0.2,0,0.2-0.3,0.3-0.3c0.4,0,0.2,0.5,0.2,0.7c0.1,0.6,0.6,1.2,0.2,1.2c-0.3,0-0.3-0.6-0.5-0.8
		c-0.4-0.6-1.9-0.4-2.1-0.3c-0.4,0.1-0.4,0.2-0.4,0.3l0.3,2.3c0,0,1.1,0,1.3-0.5c0.1-0.3-0.1-0.8,0.1-0.8c0.4,0,0.2,0.7,0.3,1.1
		c0.1,0.5,0.4,1.2,0.1,1.2c-0.3,0-0.2-0.6-0.5-0.8c-0.3-0.2-1.3,0-1.3,0l0.4,2.5c0,0,0.4,0,0.6,0c0.9-0.2,1.1-0.1,1.9-0.9
		C275.7,470.6,275.8,469.7,275.9,469.7z"/>
	<path fill="#FFFFFF" d="M283.1,467c0.6,2.4-1.9,3.5-2.2,3.6c-0.7,0.2-1.6,0.3-1.9,0.3c-0.4,0.1-1,0.5-1.1,0.2
		c0-0.2,0.5-0.2,0.4-0.5l-1.1-4.7c0-0.1-0.2-0.3-0.2-0.3s-0.4,0.3-0.5,0c0-0.1,0.1-0.3,0.2-0.3c0.1,0,0.5,0,0.9-0.1
		c0.6-0.1,1-0.3,1.6-0.5C280.4,464.5,282.4,464.1,283.1,467z M282,467.3c-0.4-1.7-1.4-2.6-2.7-2.3l-0.9,0.2c-0.1,0-0.1,0.1-0.1,0.1
		c0,0.1,0,0.1,0,0.2l1.1,4.7c0,0.1,0.1,0.1,0.1,0.1c0.1,0.1,0.2,0.1,0.3,0.1l0.9-0.2C281,470.2,282.5,469.2,282,467.3z"/>
</g>
<g>
	<path fill="#FFFFFF" d="M298.5,463.8c0.2,0.3-0.9,0.5-1.5,0.8c-0.6,0.3-1.3,0.9-1.4,0.6c-0.2-0.3,0.6-0.4,0.6-0.7
		c0-0.2,0-0.3,0-0.4l-1.9-3.8c-0.2-0.3-0.5-0.5-0.8-0.3c-0.3,0.2-0.4,0.7-0.7,0.2c-0.2-0.4,0.6-0.5,1-1c0.6-0.8,0.3-1.2,0.6-1.4
		c0.1-0.1,0.2,0.2,0.3,0.3l2.6,5.4c0.1,0.1,0.1,0.3,0.3,0.4C297.9,464.1,298.4,463.5,298.5,463.8z"/>
	<path fill="#FFFFFF" d="M304.6,457.8c0.7,1.2,0.3,2.4-0.8,3.1c-1.1,0.7-3,1.2-3.7,0c-0.4-0.7,0.3-2,0.3-2s-1.4-0.3-1.8-1
		c-0.7-1.1-0.1-2.4,1-3c0.9-0.6,2.4-0.8,3,0.2c0.5,0.8-0.2,1.8-0.2,1.8S304,456.8,304.6,457.8z M301.7,455.8c-1-1.2-2.8-0.3-2.5,1
		c0.3,1.2,2.8,0.1,2.8,0.1S302.1,456.1,301.7,455.8z M303.9,459.1c-0.4-1.1-3.1-0.1-3.1-0.1s-0.3,0.7,0.2,1.5
		C302.2,462,304.4,460.6,303.9,459.1z"/>
	<path fill="#FFFFFF" d="M311.1,453c0.9,1.1,0.6,2.4-0.5,3.2c-1,0.8-2.9,1.5-3.7,0.3c-0.5-0.6,0.1-2,0.1-2s-1.4-0.2-1.9-0.8
		c-0.8-1-0.3-2.4,0.6-3.1c0.8-0.6,2.3-1.1,3-0.1c0.6,0.7,0,1.8,0,1.8S310.4,452.1,311.1,453z M308.1,451.3c-1.1-1.1-2.8,0-2.3,1.3
		c0.4,1.2,2.8-0.2,2.8-0.2S308.4,451.6,308.1,451.3z M310.5,454.3c-0.5-1.1-3.1,0.2-3.1,0.2s-0.3,0.8,0.4,1.5
		C309.1,457.4,311.2,455.7,310.5,454.3z"/>
	<path fill="#FFFFFF" d="M316.8,447.4c1.1,1,0.8,2.7-0.2,3.7c-1.2,1.2-3.2,0.6-4.4-0.7c-1.4-1.4-1.7-3.6-0.3-4.9
		c0.5-0.5,1-0.8,1.5-0.5c0.9,0.5,0.3,1.6-0.3,1.5c-0.4-0.1-0.5-0.6-0.7-0.7c0,0-0.8,0.1-0.7,1.1c0.1,0.4,0.1,0.8,0.4,1.1l0.8,0.8
		c0.1-0.6,0.3-1,0.7-1.4C314.5,446.5,315.9,446.5,316.8,447.4z M315.8,448.5c-0.9-0.9-1.8-1.1-2.3-0.6c-0.4,0.4-0.5,1-0.1,1.5
		l1.5,1.5c0.4,0.5,1.1,0.5,1.6,0C317.2,450.2,316.5,449.3,315.8,448.5z"/>
</g>
<polygon fill="#FFFFFF" points="198,430.9 197.9,433.3 195.6,434.2 197.9,434.9 198,437.4 199.5,435.4 201.8,436.1 200.4,434.1 
	201.8,432.1 199.4,432.8 "/>
<polygon fill="#FFFFFF" points="327,430.9 327.1,433.3 329.4,434.2 327.1,434.9 327,437.4 325.5,435.4 323.2,436.1 324.6,434.1 
	323.2,432.1 325.6,432.8 "/>
</svg>
